<?xml version="1.0" standalone="no"?>
<!DOCTYPE svg PUBLIC "-//W3C//DTD SVG 20010904//EN"
 "http://www.w3.org/TR/2001/REC-SVG-20010904/DTD/svg10.dtd">
<svg version="1.0" xmlns="http://www.w3.org/2000/svg"
 width="300.000000pt" height="300.000000pt" viewBox="0 0 300.000000 300.000000"
 preserveAspectRatio="xMidYMid meet">
<metadata>
Created by potrace 1.14, written by Peter Selinger 2001-2017
</metadata>
<g transform="translate(0.000000,300.000000) scale(0.100000,-0.100000)"
fill="#000000" stroke="none">
<path d="M26 1891 c-3 -4 -4 -177 -3 -386 l2 -380 325 0 325 0 0 25 0 25 -298
0 c-257 0 -297 2 -298 15 -1 20 -1 609 0 635 1 20 7 20 1416 19 779 -1 1419
-4 1422 -8 8 -7 8 -645 0 -652 -3 -3 -137 -6 -299 -7 l-293 -2 0 -25 0 -25
325 0 325 0 0 385 0 385 -1473 1 c-810 1 -1474 -1 -1476 -5z"/>
<path d="M202 1513 l2 -173 40 0 41 0 -2 65 c-2 59 0 65 18 65 13 0 33 -20 60
-65 41 -64 42 -65 86 -65 l45 0 -23 38 c-12 20 -38 56 -56 80 -19 23 -29 42
-23 42 26 0 60 49 60 87 -1 72 -38 94 -160 97 l-89 1 1 -172z m156 94 c31 -24
-3 -77 -50 -77 -27 0 -28 2 -28 44 0 27 5 46 13 49 15 5 48 -3 65 -16z"/>
<path d="M554 1681 c-9 -10 -4 -341 6 -342 6 0 35 0 65 0 142 0 134 -2 133 31
-1 32 0 32 -80 32 l-48 0 0 40 c0 38 1 39 33 38 74 -4 79 -3 75 33 -3 32 -3
32 -55 31 l-53 0 0 38 0 38 60 0 60 0 0 30 c0 17 -3 30 -7 31 -24 4 -185 3
-189 0z"/>
<path d="M850 1675 c-12 -14 -10 -224 2 -231 17 -11 58 -11 64 -2 4 6 6 29 6
51 0 23 -1 76 -1 117 l-1 75 -31 0 c-17 0 -34 -5 -39 -10z"/>
<path d="M962 1676 c-4 -6 -7 -21 -7 -33 -1 -18 6 -24 31 -29 65 -12 97 -84
69 -152 -19 -44 -59 -61 -138 -59 -69 2 -77 -2 -77 -44 0 -15 8 -19 38 -20
152 -3 213 19 250 91 39 79 20 183 -43 224 -34 23 -113 37 -123 22z"/>
<path d="M1272 1673 c-41 -21 -52 -36 -57 -73 -7 -54 16 -84 90 -118 22 -10
46 -26 54 -36 29 -35 -27 -59 -96 -42 -18 4 -33 12 -33 17 0 6 -4 7 -10 4 -5
-3 -9 -21 -8 -40 1 -32 5 -36 41 -46 44 -12 114 -7 146 10 32 17 51 52 51 92
0 43 -32 76 -105 108 -33 14 -45 26 -45 41 0 29 42 43 89 30 50 -14 50 -14 47
22 -2 22 -9 34 -26 40 -33 12 -106 7 -138 -9z"/>
<path d="M1508 1679 c-5 -3 -8 -19 -6 -35 3 -27 5 -29 50 -27 l48 2 -1 -122
c0 -67 0 -130 0 -139 1 -14 10 -18 41 -18 l40 0 -1 128 c-1 70 -1 133 0 140 1
8 18 12 49 12 46 0 48 1 46 28 -1 15 -2 29 -3 32 -2 7 -251 6 -263 -1z"/>
<path d="M1949 1681 c-78 -25 -120 -90 -115 -181 5 -106 63 -164 166 -164 65
-1 115 25 145 76 28 47 28 150 -1 198 -36 62 -122 93 -195 71z m106 -86 c14
-13 25 -30 26 -37 8 -98 -9 -141 -59 -152 -61 -14 -112 35 -106 102 1 15 2 35
3 45 2 30 47 67 81 67 19 0 40 -9 55 -25z"/>
<path d="M2261 1682 c-11 -4 -17 -333 -6 -343 2 -3 20 -3 40 -1 l35 4 0 64 c0
93 29 87 87 -16 27 -49 29 -50 76 -50 l48 0 -42 63 c-23 34 -49 68 -58 75 -15
12 -15 14 1 23 74 42 74 142 0 170 -26 10 -160 18 -181 11z m146 -74 c13 -11
9 -43 -8 -64 -17 -21 -69 -18 -70 4 -2 24 2 66 7 73 5 8 56 -1 71 -13z"/>
<path d="M2610 1682 c-6 -2 -10 -68 -10 -172 l0 -168 73 -4 c39 -2 87 -2 105
0 31 3 33 6 30 35 l-3 31 -62 -1 -63 -1 0 39 0 39 54 0 c49 0 54 2 58 25 7 32
-5 39 -62 40 -45 0 -45 0 -48 38 l-3 39 43 -2 c77 -3 78 -3 78 33 l0 32 -90 0
c-49 0 -94 -1 -100 -3z"/>
<path d="M2006 1231 c-4 -7 -5 -15 -2 -18 9 -9 19 4 14 18 -4 11 -6 11 -12 0z"/>
<path d="M887 1223 c-4 -3 -7 -17 -7 -30 0 -17 -6 -23 -21 -23 -11 0 -18 -4
-14 -9 7 -12 -32 -34 -44 -26 -5 3 -7 14 -4 24 11 43 -34 36 -61 -10 -22 -37
-10 -57 22 -40 11 6 27 8 36 5 8 -3 29 4 47 17 l31 22 -6 -31 c-4 -18 -3 -33
3 -37 7 -4 11 5 11 22 0 36 9 48 38 56 23 5 24 3 20 -34 -2 -21 -2 -39 1 -39
2 0 19 17 38 38 19 20 32 30 30 21 -12 -40 32 -49 67 -14 12 12 15 11 20 -10
8 -30 29 -32 56 -5 14 14 20 16 20 6 0 -13 20 -26 40 -26 5 0 25 14 44 31 l35
30 -6 -35 c-4 -25 -2 -36 7 -36 7 0 10 6 7 13 -8 23 11 54 37 59 24 5 25 3 21
-23 -8 -46 47 -50 85 -5 17 21 27 20 33 -3 3 -13 -3 -25 -17 -35 -11 -8 -16
-15 -10 -15 14 -1 94 59 94 70 0 6 -10 3 -22 -5 -33 -23 -41 -20 -34 14 3 17
4 30 2 30 -2 0 -20 -16 -40 -35 -46 -43 -79 -47 -72 -9 3 15 8 29 12 33 4 3 4
-2 1 -11 -8 -23 9 -24 17 -1 8 19 -13 36 -29 23 -6 -5 -23 -11 -38 -14 -24 -4
-26 -2 -21 20 3 13 2 24 -4 24 -5 0 -13 -11 -16 -25 -4 -14 -13 -25 -21 -25
-8 0 -15 -5 -15 -11 0 -16 -31 -38 -52 -39 -10 0 -18 5 -18 10 0 6 3 10 8 10
12 0 33 40 27 50 -8 13 -45 -6 -45 -23 -1 -17 -48 -50 -64 -44 -14 5 -14 29
-1 80 4 16 3 27 -3 27 -5 0 -13 -16 -16 -35 -10 -50 -76 -91 -76 -47 0 31 -12
33 -40 7 l-27 -26 7 48 c5 26 6 50 3 53 -6 6 -23 -23 -17 -31 7 -11 -23 -30
-38 -24 -10 4 -13 15 -10 31 4 24 1 30 -11 17z m314 -66 c-10 -9 -11 -8 -5 6
3 10 9 15 12 12 3 -3 0 -11 -7 -18z m-421 -6 c-12 -23 -29 -35 -36 -28 -10 9
16 47 32 47 11 0 12 -4 4 -19z"/>
<path d="M1729 1198 c0 -24 -8 -39 -29 -56 -36 -28 -70 -36 -70 -17 0 27 12
44 27 38 10 -4 14 -2 11 7 -9 28 -29 21 -43 -15 -9 -20 -13 -40 -10 -45 10
-16 45 -11 72 10 34 26 41 25 35 -5 -6 -36 9 -31 38 13 23 34 25 35 28 14 4
-29 27 -39 48 -21 14 11 18 11 29 -4 18 -24 40 -21 65 10 19 25 62 43 59 25
-1 -4 -1 -17 0 -29 1 -28 34 -31 58 -7 15 14 17 14 25 0 12 -22 40 -20 71 4
30 24 37 25 37 5 0 -36 49 -26 94 18 20 19 19 19 -15 -1 -20 -12 -44 -22 -54
-22 -17 0 -16 2 3 23 22 23 30 57 13 57 -5 0 -15 -8 -22 -17 -8 -9 -32 -29
-53 -45 -30 -21 -42 -25 -52 -17 -18 15 0 51 21 43 17 -7 21 11 5 21 -6 4 -32
-12 -57 -36 -45 -41 -47 -42 -54 -21 -5 12 -6 29 -3 37 5 12 0 14 -24 9 -16
-3 -39 -1 -51 5 -18 10 -27 8 -59 -19 -45 -37 -55 -37 -71 -3 l-13 28 -25 -29
-25 -29 7 51 c4 34 3 52 -4 52 -6 0 -11 -15 -12 -32z m491 -22 c0 -2 -8 -10
-17 -17 -16 -13 -17 -12 -4 4 13 16 21 21 21 13z m-297 -12 c10 -10 -12 -44
-28 -44 -18 0 -18 5 -5 31 11 19 22 24 33 13z"/>
</g>
</svg>
